<?xml version="1.0" encoding="UTF-8" standalone="no"?>
<!-- Created with Inkscape (http://www.inkscape.org/) -->

<svg
   width="210mm"
   height="297mm"
   viewBox="0 0 210 297"
   version="1.1"
   id="svg1"
   sodipodi:docname="palle_logo.svg"
   xml:space="preserve"
   inkscape:version="1.4 (e7c3feb1, 2024-10-09)"
   inkscape:export-filename="palle_logo.png"
   inkscape:export-xdpi="96"
   inkscape:export-ydpi="96"
   xmlns:inkscape="http://www.inkscape.org/namespaces/inkscape"
   xmlns:sodipodi="http://sodipodi.sourceforge.net/DTD/sodipodi-0.dtd"
   xmlns="http://www.w3.org/2000/svg"
   xmlns:svg="http://www.w3.org/2000/svg"><sodipodi:namedview
     id="namedview1"
     pagecolor="#ffffff"
     bordercolor="#000000"
     borderopacity="0.25"
     inkscape:showpageshadow="2"
     inkscape:pageopacity="0.0"
     inkscape:pagecheckerboard="0"
     inkscape:deskcolor="#d1d1d1"
     inkscape:document-units="mm"
     inkscape:zoom="0.63559753"
     inkscape:cx="655.28889"
     inkscape:cy="827.56772"
     inkscape:window-width="1968"
     inkscape:window-height="1357"
     inkscape:window-x="333"
     inkscape:window-y="25"
     inkscape:window-maximized="0"
     inkscape:current-layer="layer1"
     inkscape:export-bgcolor="#fbd765ff" /><defs
     id="defs1"><linearGradient
       id="swatch7"
       inkscape:swatch="solid"><stop
         style="stop-color:#000000;stop-opacity:1;"
         offset="0"
         id="stop7" /></linearGradient></defs><g
     inkscape:label="Слой 1"
     inkscape:groupmode="layer"
     id="layer1"><rect
       style="display:inline;fill:#fbd765;fill-opacity:1;stroke-width:0.263539"
       id="rect6"
       width="209.57964"
       height="296.95126"
       x="0.34485349"
       y="1.8766265e-08"
       inkscape:label="Background"
       sodipodi:insensitive="true" /><rect
       style="fill:#000000;stroke-width:0.28021"
       id="rect1-8-1"
       width="26.856138"
       height="26.143679"
       x="129.66309"
       y="118.53179"
       ry="0"
       transform="matrix(1,0,-0.29004753,0.95701224,0,0)" /><rect
       style="fill:#000000;stroke-width:0.28021"
       id="rect1-4-1-8"
       width="26.856138"
       height="26.143679"
       x="129.88113"
       y="146.25282"
       ry="0"
       transform="matrix(1,0,-0.29004753,0.95701224,0,0)" /><rect
       style="fill:#1a1a1a;fill-opacity:1;stroke-width:0.28021"
       id="rect1-0-5-7"
       width="26.856138"
       height="26.143679"
       x="130.09329"
       y="173.97383"
       ry="0"
       transform="matrix(1,0,-0.29004753,0.95701224,0,0)" /><rect
       style="fill:#000000;stroke-width:0.28021"
       id="rect2-3-8"
       width="26.856138"
       height="26.143679"
       x="129.66309"
       y="118.53179"
       ry="0"
       transform="matrix(1,0,-0.29004753,0.95701224,0,0)" /><rect
       style="fill:#2a2a2a;fill-opacity:1;stroke-width:0.28021"
       id="rect3-5-7"
       width="26.856138"
       height="26.143679"
       x="129.88113"
       y="146.25282"
       ry="0"
       transform="matrix(1,0,-0.29004753,0.95701224,0,0)" /><rect
       style="fill:#444444;fill-opacity:1;stroke-width:3.06664;stroke-dasharray:none"
       id="rect2-9-4-7"
       width="26.856138"
       height="26.143679"
       x="158.10138"
       y="118.50906"
       ry="0"
       transform="matrix(1,0,-0.29004753,0.95701224,0,0)" /><rect
       style="fill:#2a2a2a;fill-opacity:1;stroke-width:0.28021"
       id="rect3-9-3-4"
       width="26.856138"
       height="26.143679"
       x="158.29712"
       y="146.1532"
       ry="0"
       transform="matrix(1,0,-0.29004753,0.95701224,0,0)" /><rect
       style="fill:#444444;fill-opacity:1;stroke:none;stroke-width:0;stroke-dasharray:none;stroke-opacity:1"
       id="rect4-4"
       width="26.856138"
       height="26.143679"
       x="129.66309"
       y="118.53179"
       ry="0"
       transform="matrix(1,0,-0.29004753,0.95701224,0,0)" /><path
       id="rect4-5-9"
       style="fill:#aa0000;fill-opacity:1;stroke-width:0.274121"
       d="m 66.937449,113.41532 -0.0264,0.0874 19.31252,24.88996 7.57008,-24.97729 z" /></g></svg>
