<?xml version="1.0" encoding="UTF-8" standalone="no"?>
<!-- Created with Inkscape (http://www.inkscape.org/) -->

<svg
   width="210mm"
   height="297mm"
   viewBox="0 0 210 297"
   version="1.1"
   id="svg1"
   sodipodi:docname="palle_logo.svg"
   xml:space="preserve"
   inkscape:version="1.4 (e7c3feb1, 2024-10-09)"
   xmlns:inkscape="http://www.inkscape.org/namespaces/inkscape"
   xmlns:sodipodi="http://sodipodi.sourceforge.net/DTD/sodipodi-0.dtd"
   xmlns="http://www.w3.org/2000/svg"
   xmlns:svg="http://www.w3.org/2000/svg"><sodipodi:namedview
     id="namedview1"
     pagecolor="#ffffff"
     bordercolor="#000000"
     borderopacity="0.25"
     inkscape:showpageshadow="2"
     inkscape:pageopacity="0.0"
     inkscape:pagecheckerboard="0"
     inkscape:deskcolor="#d1d1d1"
     inkscape:document-units="mm"
     inkscape:zoom="0.89887065"
     inkscape:cx="383.81496"
     inkscape:cy="569.60365"
     inkscape:window-width="1968"
     inkscape:window-height="1357"
     inkscape:window-x="333"
     inkscape:window-y="25"
     inkscape:window-maximized="0"
     inkscape:current-layer="layer1" /><defs
     id="defs1"><linearGradient
       id="swatch7"
       inkscape:swatch="solid"><stop
         style="stop-color:#000000;stop-opacity:1;"
         offset="0"
         id="stop7" /></linearGradient></defs><g
     inkscape:label="Слой 1"
     inkscape:groupmode="layer"
     id="layer1"><rect
       style="fill:#fbd765;fill-opacity:1;stroke-width:0.264583"
       id="rect6"
       width="211.05139"
       height="297.22034"
       x="-0.83254987"
       y="-0.41627494" /><rect
       style="fill:#000000;stroke-width:0.28021"
       id="rect1"
       width="26.856138"
       height="26.143679"
       x="56.553364"
       y="26.758825"
       ry="0"
       transform="matrix(1,0,-0.29004753,0.95701224,0,0)" /><rect
       style="fill:#000000;stroke-width:0.28021"
       id="rect1-4"
       width="26.856138"
       height="26.143679"
       x="56.77142"
       y="54.479843"
       ry="0"
       transform="matrix(1,0,-0.29004753,0.95701224,0,0)" /><rect
       style="fill:#ffffff;stroke-width:0.28021"
       id="rect1-0"
       width="26.856138"
       height="26.143679"
       x="56.983574"
       y="82.200859"
       ry="0"
       transform="matrix(1,0,-0.29004753,0.95701224,0,0)" /><rect
       style="fill:#ffffff;stroke-width:0.28021;stroke:none"
       id="rect2"
       width="26.856138"
       height="26.143679"
       x="56.553364"
       y="26.758825"
       ry="0"
       transform="matrix(1,0,-0.29004753,0.95701224,0,0)" /><rect
       style="fill:#ffffff;stroke-width:0.28021"
       id="rect3"
       width="26.856138"
       height="26.143679"
       x="56.77142"
       y="54.479843"
       ry="0"
       transform="matrix(1,0,-0.29004753,0.95701224,0,0)" /><rect
       style="fill:#ffffff;stroke-width:0.28021"
       id="rect2-9"
       width="26.856138"
       height="26.143679"
       x="84.991669"
       y="26.736088"
       ry="0"
       transform="matrix(1,0,-0.29004753,0.95701224,0,0)" /><rect
       style="fill:#ffffff;stroke-width:0.28021"
       id="rect3-9"
       width="26.856138"
       height="26.143679"
       x="85.187416"
       y="54.380219"
       ry="0"
       transform="matrix(1,0,-0.29004753,0.95701224,0,0)" /><rect
       style="fill:#000000;stroke-width:0.28021"
       id="rect1-8"
       width="26.856138"
       height="26.143679"
       x="78.390106"
       y="130.6143"
       ry="0"
       transform="matrix(1,0,-0.29004753,0.95701224,0,0)" /><rect
       style="fill:#000000;stroke-width:0.28021"
       id="rect1-4-1"
       width="26.856138"
       height="26.143679"
       x="78.608162"
       y="158.33533"
       ry="0"
       transform="matrix(1,0,-0.29004753,0.95701224,0,0)" /><rect
       style="fill:#ffffff;stroke-width:0.28021"
       id="rect1-0-5"
       width="26.856138"
       height="26.143679"
       x="78.820312"
       y="186.05634"
       ry="0"
       transform="matrix(1,0,-0.29004753,0.95701224,0,0)" /><rect
       style="fill:#000000;stroke-width:0.28021"
       id="rect2-3"
       width="26.856138"
       height="26.143679"
       x="78.390106"
       y="130.6143"
       ry="0"
       transform="matrix(1,0,-0.29004753,0.95701224,0,0)" /><rect
       style="fill:#ffffff;stroke-width:0.28021"
       id="rect3-5"
       width="26.856138"
       height="26.143679"
       x="78.608162"
       y="158.33533"
       ry="0"
       transform="matrix(1,0,-0.29004753,0.95701224,0,0)" /><rect
       style="fill:#ffffff;stroke-width:0.28021"
       id="rect2-9-4"
       width="26.856138"
       height="26.143679"
       x="106.82841"
       y="130.59157"
       ry="0"
       transform="matrix(1,0,-0.29004753,0.95701224,0,0)" /><rect
       style="fill:#ffffff;stroke-width:0.28021"
       id="rect3-9-3"
       width="26.856138"
       height="26.143679"
       x="107.02415"
       y="158.2357"
       ry="0"
       transform="matrix(1,0,-0.29004753,0.95701224,0,0)" /><rect
       style="fill:#000000;stroke-width:0.28021"
       id="rect1-3"
       width="26.856138"
       height="26.143679"
       x="145.02711"
       y="27.054295"
       ry="0"
       transform="matrix(1,0,-0.29004753,0.95701224,0,0)" /><rect
       style="fill:#000000;stroke-width:0.28021"
       id="rect1-4-2"
       width="26.856138"
       height="26.143679"
       x="145.24516"
       y="54.775318"
       ry="0"
       transform="matrix(1,0,-0.29004753,0.95701224,0,0)" /><rect
       style="fill:#000000;stroke-width:0.28021"
       id="rect1-0-6"
       width="26.856138"
       height="26.143679"
       x="145.45732"
       y="82.49633"
       ry="0"
       transform="matrix(1,0,-0.29004753,0.95701224,0,0)" /><rect
       style="fill:#4d4d4d;stroke-width:0.28021"
       id="rect2-94"
       width="26.856138"
       height="26.143679"
       x="145.02711"
       y="27.054295"
       ry="0"
       transform="matrix(1,0,-0.29004753,0.95701224,0,0)" /><rect
       style="fill:#1a1a1a;stroke-width:0.28021"
       id="rect3-1"
       width="26.856138"
       height="26.143679"
       x="145.24516"
       y="54.775318"
       ry="0"
       transform="matrix(1,0,-0.29004753,0.95701224,0,0)" /><rect
       style="fill:#4d4d4d;stroke-width:0.28021"
       id="rect2-9-3"
       width="26.856138"
       height="26.143679"
       x="173.46541"
       y="27.031559"
       ry="0"
       transform="matrix(1,0,-0.29004753,0.95701224,0,0)" /><rect
       style="fill:#1a1a1a;stroke-width:0.28021"
       id="rect3-9-7"
       width="26.856138"
       height="26.143679"
       x="173.66116"
       y="54.675686"
       ry="0"
       transform="matrix(1,0,-0.29004753,0.95701224,0,0)" /><rect
       style="fill:#ffffff;stroke-width:0.28021"
       id="rect4"
       width="26.856138"
       height="26.143679"
       x="78.390106"
       y="130.6143"
       ry="0"
       transform="matrix(1,0,-0.29004753,0.95701224,0,0)" /><path
       id="rect4-5"
       style="fill:#ffffff;stroke-width:0.28021"
       d="M 50.037952 130.59229 L 50.038065 130.68354 L 76.894132 156.69152 L 76.894194 130.59229 L 50.037952 130.59229 z "
       transform="matrix(1,0,-0.29004753,0.95701224,0,0)" /><rect
       style="fill:#000000;stroke-width:0.28021"
       id="rect1-8-1"
       width="26.856138"
       height="26.143679"
       x="170.9505"
       y="130.27608"
       ry="0"
       transform="matrix(1,0,-0.29004753,0.95701224,0,0)" /><rect
       style="fill:#000000;stroke-width:0.28021"
       id="rect1-4-1-8"
       width="26.856138"
       height="26.143679"
       x="171.16855"
       y="157.9971"
       ry="0"
       transform="matrix(1,0,-0.29004753,0.95701224,0,0)" /><rect
       style="fill:#1a1a1a;stroke-width:0.28021;fill-opacity:1"
       id="rect1-0-5-7"
       width="26.856138"
       height="26.143679"
       x="171.38071"
       y="185.71811"
       ry="0"
       transform="matrix(1,0,-0.29004753,0.95701224,0,0)" /><rect
       style="fill:#000000;stroke-width:0.28021"
       id="rect2-3-8"
       width="26.856138"
       height="26.143679"
       x="170.9505"
       y="130.27608"
       ry="0"
       transform="matrix(1,0,-0.29004753,0.95701224,0,0)" /><rect
       style="fill:#2a2a2a;stroke-width:0.28021;fill-opacity:1"
       id="rect3-5-7"
       width="26.856138"
       height="26.143679"
       x="171.16855"
       y="157.9971"
       ry="0"
       transform="matrix(1,0,-0.29004753,0.95701224,0,0)" /><rect
       style="fill:#444444;stroke-width:3.06663797;fill-opacity:1;stroke-dasharray:none"
       id="rect2-9-4-7"
       width="26.856138"
       height="26.143679"
       x="199.38879"
       y="130.25334"
       ry="0"
       transform="matrix(1,0,-0.29004753,0.95701224,0,0)" /><rect
       style="fill:#2a2a2a;stroke-width:0.28021;fill-opacity:1"
       id="rect3-9-3-4"
       width="26.856138"
       height="26.143679"
       x="199.58453"
       y="157.89748"
       ry="0"
       transform="matrix(1,0,-0.29004753,0.95701224,0,0)" /><rect
       style="fill:#444444;stroke-width:0;fill-opacity:1;stroke:none;stroke-dasharray:none;stroke-opacity:1"
       id="rect4-4"
       width="26.856138"
       height="26.143679"
       x="170.9505"
       y="130.27608"
       ry="0"
       transform="matrix(1,0,-0.29004753,0.95701224,0,0)" /><path
       id="rect4-5-9"
       style="fill:#aa0000;stroke-width:0.274121;fill-opacity:1"
       d="m 104.81847,124.65474 -0.0264,0.0874 19.31252,24.88996 7.57008,-24.97729 z" /></g></svg>
